G04 EAGLE Gerber RS-274X export*
G75*
%MOMM*%
%FSLAX34Y34*%
%LPD*%
%INTop Copper*%
%IPPOS*%
%AMOC8*
5,1,8,0,0,1.08239X$1,22.5*%
G01*
G04 Define Apertures*
%ADD10R,1.524000X1.524000*%
%ADD11P,1.64956X8X22.5*%
%ADD12R,1.000000X0.700000*%
%ADD13R,1.600000X1.300000*%
%ADD14P,1.64956X8X112.5*%
%ADD15R,1.820000X0.820000*%
%ADD16C,0.756400*%
%ADD17C,0.203200*%
%ADD18C,0.304800*%
%ADD19C,0.254000*%
G36*
X135195Y168309D02*
X134403Y168148D01*
X65604Y168148D01*
X64842Y168297D01*
X64167Y168743D01*
X60539Y172371D01*
X60105Y173016D01*
X59944Y173808D01*
X59944Y181588D01*
X59243Y182289D01*
X58842Y182859D01*
X58649Y183645D01*
X58778Y184443D01*
X59209Y185128D01*
X59872Y185590D01*
X60663Y185758D01*
X61457Y185603D01*
X62445Y185194D01*
X64555Y185194D01*
X66506Y186002D01*
X67869Y187365D01*
X68513Y187799D01*
X69306Y187960D01*
X106444Y187960D01*
X107177Y187823D01*
X107858Y187388D01*
X108315Y186721D01*
X108364Y186481D01*
X109369Y185476D01*
X120631Y185476D01*
X121524Y186369D01*
X121524Y194631D01*
X120631Y195524D01*
X109369Y195524D01*
X108375Y194530D01*
X108339Y194340D01*
X107904Y193658D01*
X107237Y193201D01*
X106444Y193040D01*
X69306Y193040D01*
X68543Y193189D01*
X67869Y193635D01*
X66506Y194998D01*
X64555Y195806D01*
X62680Y195806D01*
X61978Y195931D01*
X61290Y196356D01*
X60822Y197016D01*
X60648Y197806D01*
X60797Y198601D01*
X60960Y198847D01*
X60960Y201168D01*
X52832Y201168D01*
X52832Y193040D01*
X55131Y193040D01*
X55310Y193165D01*
X56097Y193351D01*
X56895Y193215D01*
X57576Y192780D01*
X58033Y192113D01*
X58194Y191320D01*
X58194Y189445D01*
X58603Y188457D01*
X58755Y187777D01*
X58632Y186977D01*
X58208Y186289D01*
X57548Y185821D01*
X56758Y185648D01*
X55963Y185796D01*
X55289Y186243D01*
X54588Y186944D01*
X47012Y186944D01*
X44617Y184548D01*
X44032Y184140D01*
X43245Y183954D01*
X42448Y184090D01*
X41766Y184526D01*
X41309Y185193D01*
X41148Y185985D01*
X41148Y193578D01*
X41273Y194280D01*
X41698Y194968D01*
X42358Y195436D01*
X43148Y195610D01*
X43943Y195461D01*
X44617Y195015D01*
X46592Y193040D01*
X48768Y193040D01*
X48768Y213360D01*
X46592Y213360D01*
X44617Y211385D01*
X44032Y210977D01*
X43245Y210791D01*
X42448Y210927D01*
X41766Y211363D01*
X41309Y212030D01*
X41148Y212822D01*
X41148Y213796D01*
X41297Y214558D01*
X41743Y215233D01*
X45371Y218861D01*
X46016Y219295D01*
X46808Y219456D01*
X59051Y219456D01*
X59944Y220349D01*
X59944Y236851D01*
X59724Y237071D01*
X59316Y237656D01*
X59130Y238443D01*
X59266Y239241D01*
X59701Y239922D01*
X60368Y240379D01*
X61161Y240540D01*
X192839Y240540D01*
X193541Y240415D01*
X194229Y239990D01*
X194697Y239330D01*
X194871Y238540D01*
X194723Y237745D01*
X194276Y237071D01*
X194056Y236851D01*
X194056Y233172D01*
X193919Y232440D01*
X193484Y231758D01*
X192817Y231301D01*
X192807Y231299D01*
X170127Y208619D01*
X169483Y208185D01*
X168690Y208024D01*
X156469Y208024D01*
X155576Y207131D01*
X155576Y204572D01*
X155439Y203840D01*
X155004Y203158D01*
X154337Y202701D01*
X153544Y202540D01*
X147556Y202540D01*
X146824Y202677D01*
X146142Y203112D01*
X145685Y203779D01*
X145636Y204019D01*
X144631Y205024D01*
X133369Y205024D01*
X132476Y204131D01*
X132476Y195869D01*
X133369Y194976D01*
X144631Y194976D01*
X145625Y195970D01*
X145661Y196161D01*
X146096Y196842D01*
X146763Y197299D01*
X147556Y197460D01*
X153544Y197460D01*
X154277Y197323D01*
X154958Y196888D01*
X155415Y196221D01*
X155576Y195428D01*
X155576Y192869D01*
X156508Y191937D01*
X156929Y191322D01*
X157103Y190532D01*
X156955Y189737D01*
X156508Y189063D01*
X155576Y188131D01*
X155576Y186080D01*
X155439Y185348D01*
X155004Y184666D01*
X154337Y184209D01*
X153544Y184048D01*
X147449Y184048D01*
X146686Y184197D01*
X146012Y184643D01*
X144631Y186024D01*
X133369Y186024D01*
X132476Y185131D01*
X132476Y176869D01*
X133369Y175976D01*
X134620Y175976D01*
X135353Y175839D01*
X136034Y175404D01*
X136491Y174737D01*
X136652Y173944D01*
X136652Y170398D01*
X136503Y169635D01*
X136057Y168961D01*
X135839Y168743D01*
X135195Y168309D01*
G37*
%LPC*%
G36*
X52832Y205232D02*
X60960Y205232D01*
X60960Y207408D01*
X55008Y213360D01*
X52832Y213360D01*
X52832Y205232D01*
G37*
%LPD*%
G36*
X217001Y-135729D02*
X216208Y-135890D01*
X37592Y-135890D01*
X36860Y-135753D01*
X36178Y-135318D01*
X35721Y-134651D01*
X35560Y-133858D01*
X35560Y6024D01*
X35685Y6726D01*
X36110Y7414D01*
X36770Y7882D01*
X37560Y8056D01*
X38355Y7907D01*
X39029Y7461D01*
X46297Y193D01*
X46705Y-392D01*
X46891Y-1179D01*
X46755Y-1977D01*
X46319Y-2658D01*
X45652Y-3115D01*
X44860Y-3276D01*
X41069Y-3276D01*
X40176Y-4169D01*
X40176Y-13631D01*
X41069Y-14524D01*
X60531Y-14524D01*
X61424Y-13631D01*
X61424Y-5080D01*
X61561Y-4348D01*
X61996Y-3666D01*
X62663Y-3209D01*
X63456Y-3048D01*
X77344Y-3048D01*
X78077Y-3185D01*
X78758Y-3620D01*
X79215Y-4287D01*
X79376Y-5080D01*
X79376Y-10331D01*
X80308Y-11263D01*
X80729Y-11878D01*
X80903Y-12668D01*
X80755Y-13463D01*
X80308Y-14137D01*
X79376Y-15069D01*
X79376Y-29331D01*
X80269Y-30224D01*
X84328Y-30224D01*
X85061Y-30361D01*
X85742Y-30796D01*
X86199Y-31463D01*
X86360Y-32256D01*
X86360Y-39152D01*
X98095Y-50887D01*
X98503Y-51472D01*
X98689Y-52259D01*
X98554Y-53057D01*
X98118Y-53738D01*
X97451Y-54195D01*
X96658Y-54356D01*
X84549Y-54356D01*
X83786Y-54207D01*
X83112Y-53761D01*
X68457Y-39106D01*
X63456Y-39106D01*
X62724Y-38969D01*
X62042Y-38534D01*
X61585Y-37867D01*
X61448Y-37193D01*
X60531Y-36276D01*
X41069Y-36276D01*
X40176Y-37169D01*
X40176Y-46631D01*
X41069Y-47524D01*
X60531Y-47524D01*
X61446Y-46610D01*
X61561Y-45994D01*
X61996Y-45312D01*
X62663Y-44855D01*
X63456Y-44694D01*
X65301Y-44694D01*
X66064Y-44843D01*
X66738Y-45289D01*
X79161Y-57712D01*
X79595Y-58356D01*
X79756Y-59149D01*
X79756Y-71751D01*
X80649Y-72644D01*
X84074Y-72644D01*
X84807Y-72781D01*
X85488Y-73216D01*
X85945Y-73883D01*
X86106Y-74676D01*
X86106Y-109474D01*
X85969Y-110207D01*
X85534Y-110888D01*
X84867Y-111345D01*
X84074Y-111506D01*
X80649Y-111506D01*
X79756Y-112399D01*
X79756Y-128901D01*
X80649Y-129794D01*
X97151Y-129794D01*
X98044Y-128901D01*
X98044Y-112399D01*
X97151Y-111506D01*
X93726Y-111506D01*
X92994Y-111369D01*
X92312Y-110934D01*
X91855Y-110267D01*
X91694Y-109474D01*
X91694Y-74676D01*
X91831Y-73944D01*
X92266Y-73262D01*
X92933Y-72805D01*
X93726Y-72644D01*
X97151Y-72644D01*
X98044Y-71751D01*
X98044Y-55742D01*
X98169Y-55040D01*
X98594Y-54351D01*
X99254Y-53884D01*
X100044Y-53710D01*
X100839Y-53858D01*
X101513Y-54305D01*
X104601Y-57393D01*
X105023Y-58009D01*
X105196Y-58799D01*
X105156Y-59014D01*
X105156Y-67288D01*
X110512Y-72644D01*
X118088Y-72644D01*
X123444Y-67288D01*
X123444Y-59712D01*
X118088Y-54356D01*
X109846Y-54356D01*
X109663Y-54396D01*
X108868Y-54248D01*
X108193Y-53801D01*
X92035Y-37643D01*
X91601Y-36999D01*
X91440Y-36206D01*
X91440Y-32256D01*
X91577Y-31524D01*
X92012Y-30842D01*
X92679Y-30385D01*
X93472Y-30224D01*
X97531Y-30224D01*
X98424Y-29331D01*
X98424Y-15069D01*
X97492Y-14137D01*
X97071Y-13522D01*
X96897Y-12732D01*
X97045Y-11937D01*
X97492Y-11263D01*
X98424Y-10331D01*
X98424Y-5080D01*
X98561Y-4348D01*
X98996Y-3666D01*
X99663Y-3209D01*
X100456Y-3048D01*
X102744Y-3048D01*
X103477Y-3185D01*
X104158Y-3620D01*
X104615Y-4287D01*
X104776Y-5080D01*
X104776Y-10331D01*
X105708Y-11263D01*
X106129Y-11878D01*
X106303Y-12668D01*
X106155Y-13463D01*
X105708Y-14137D01*
X104776Y-15069D01*
X104776Y-29331D01*
X105669Y-30224D01*
X109728Y-30224D01*
X110461Y-30361D01*
X111142Y-30796D01*
X111599Y-31463D01*
X111760Y-32256D01*
X111760Y-39152D01*
X130001Y-57393D01*
X130423Y-58009D01*
X130596Y-58799D01*
X130556Y-59014D01*
X130556Y-67288D01*
X135912Y-72644D01*
X143488Y-72644D01*
X146391Y-69740D01*
X146976Y-69332D01*
X147763Y-69146D01*
X148561Y-69282D01*
X149242Y-69718D01*
X149699Y-70385D01*
X149860Y-71177D01*
X149860Y-80656D01*
X149711Y-81419D01*
X149265Y-82093D01*
X120407Y-110951D01*
X119792Y-111373D01*
X119002Y-111546D01*
X118786Y-111506D01*
X110512Y-111506D01*
X105156Y-116862D01*
X105156Y-124438D01*
X110512Y-129794D01*
X118088Y-129794D01*
X123444Y-124438D01*
X123444Y-116196D01*
X123404Y-116013D01*
X123552Y-115218D01*
X123999Y-114543D01*
X152857Y-85685D01*
X154940Y-83602D01*
X154940Y-72614D01*
X155065Y-71912D01*
X155490Y-71224D01*
X156150Y-70756D01*
X156940Y-70582D01*
X157735Y-70731D01*
X158409Y-71177D01*
X160892Y-73660D01*
X163068Y-73660D01*
X163068Y-53340D01*
X160892Y-53340D01*
X158409Y-55823D01*
X157824Y-56231D01*
X157037Y-56417D01*
X156240Y-56281D01*
X155558Y-55846D01*
X155101Y-55179D01*
X154940Y-54386D01*
X154940Y-43906D01*
X155089Y-43143D01*
X155535Y-42469D01*
X156898Y-41106D01*
X157706Y-39155D01*
X157706Y-37045D01*
X156898Y-35094D01*
X155497Y-33693D01*
X155089Y-33108D01*
X154903Y-32321D01*
X155038Y-31524D01*
X155474Y-30842D01*
X156141Y-30385D01*
X156934Y-30224D01*
X168690Y-30224D01*
X169453Y-30373D01*
X170127Y-30819D01*
X172664Y-33356D01*
X173092Y-33986D01*
X173259Y-34777D01*
X173105Y-35571D01*
X172494Y-37045D01*
X172494Y-39155D01*
X173302Y-41106D01*
X174665Y-42469D01*
X175099Y-43113D01*
X175260Y-43906D01*
X175260Y-54386D01*
X175135Y-55088D01*
X174710Y-55776D01*
X174050Y-56244D01*
X173260Y-56418D01*
X172465Y-56269D01*
X171791Y-55823D01*
X169308Y-53340D01*
X167132Y-53340D01*
X167132Y-73660D01*
X169308Y-73660D01*
X171791Y-71177D01*
X172376Y-70769D01*
X173163Y-70583D01*
X173961Y-70719D01*
X174642Y-71155D01*
X175099Y-71822D01*
X175260Y-72614D01*
X175260Y-80656D01*
X175111Y-81419D01*
X174665Y-82093D01*
X145807Y-110951D01*
X145192Y-111373D01*
X144402Y-111546D01*
X144186Y-111506D01*
X135912Y-111506D01*
X130556Y-116862D01*
X130556Y-124438D01*
X135912Y-129794D01*
X143488Y-129794D01*
X148844Y-124438D01*
X148844Y-116196D01*
X148804Y-116013D01*
X148952Y-115218D01*
X149399Y-114543D01*
X178257Y-85685D01*
X180340Y-83602D01*
X180340Y-43906D01*
X180489Y-43143D01*
X180935Y-42469D01*
X182298Y-41106D01*
X183106Y-39155D01*
X183106Y-37045D01*
X182298Y-35094D01*
X180806Y-33602D01*
X179964Y-33253D01*
X179305Y-32813D01*
X175219Y-28727D01*
X174785Y-28083D01*
X174624Y-27290D01*
X174624Y-15069D01*
X173692Y-14137D01*
X173271Y-13522D01*
X173097Y-12732D01*
X173245Y-11937D01*
X173692Y-11263D01*
X174624Y-10331D01*
X174624Y3931D01*
X173731Y4824D01*
X156469Y4824D01*
X155288Y3643D01*
X154644Y3209D01*
X153851Y3048D01*
X150949Y3048D01*
X150186Y3197D01*
X149512Y3643D01*
X148331Y4824D01*
X144234Y4824D01*
X143531Y4949D01*
X142843Y5374D01*
X142375Y6034D01*
X142202Y6824D01*
X142350Y7619D01*
X142797Y8293D01*
X144198Y9694D01*
X145006Y11645D01*
X145006Y13755D01*
X144198Y15706D01*
X143343Y16561D01*
X142909Y17205D01*
X142748Y17998D01*
X142748Y21544D01*
X142885Y22277D01*
X143320Y22958D01*
X143987Y23415D01*
X144593Y23538D01*
X146012Y24957D01*
X146656Y25391D01*
X147449Y25552D01*
X153544Y25552D01*
X154277Y25415D01*
X154958Y24980D01*
X155415Y24313D01*
X155576Y23520D01*
X155576Y21469D01*
X156469Y20576D01*
X173731Y20576D01*
X174624Y21469D01*
X174624Y32778D01*
X174749Y33480D01*
X175174Y34169D01*
X175834Y34636D01*
X176624Y34810D01*
X177419Y34662D01*
X178093Y34215D01*
X189448Y22860D01*
X192024Y22860D01*
X192757Y22723D01*
X193438Y22288D01*
X193562Y22107D01*
X199412Y16256D01*
X206988Y16256D01*
X212344Y21612D01*
X212344Y29188D01*
X206988Y34544D01*
X199412Y34544D01*
X193617Y28749D01*
X193003Y28327D01*
X192213Y28154D01*
X191418Y28302D01*
X190743Y28749D01*
X175219Y44273D01*
X174785Y44917D01*
X174624Y45710D01*
X174624Y54731D01*
X173731Y55624D01*
X156469Y55624D01*
X155576Y54731D01*
X155576Y52172D01*
X155439Y51440D01*
X155004Y50758D01*
X154337Y50301D01*
X153544Y50140D01*
X147556Y50140D01*
X146824Y50277D01*
X146142Y50712D01*
X145685Y51379D01*
X145636Y51619D01*
X144631Y52624D01*
X133369Y52624D01*
X132476Y51731D01*
X132476Y43469D01*
X133369Y42576D01*
X144631Y42576D01*
X145625Y43570D01*
X145661Y43761D01*
X146096Y44442D01*
X146763Y44899D01*
X147556Y45060D01*
X153544Y45060D01*
X154277Y44923D01*
X154958Y44488D01*
X155415Y43821D01*
X155576Y43028D01*
X155576Y40469D01*
X156508Y39537D01*
X156929Y38922D01*
X157103Y38132D01*
X156955Y37337D01*
X156508Y36663D01*
X155576Y35731D01*
X155576Y33680D01*
X155439Y32948D01*
X155004Y32266D01*
X154337Y31809D01*
X153544Y31648D01*
X147449Y31648D01*
X146686Y31797D01*
X146012Y32243D01*
X144631Y33624D01*
X133369Y33624D01*
X132476Y32731D01*
X132476Y24469D01*
X133369Y23576D01*
X134620Y23576D01*
X135353Y23439D01*
X136034Y23004D01*
X136491Y22337D01*
X136652Y21544D01*
X136652Y17998D01*
X136503Y17235D01*
X136057Y16561D01*
X135202Y15706D01*
X134394Y13755D01*
X134394Y11645D01*
X135202Y9694D01*
X136603Y8293D01*
X137011Y7708D01*
X137197Y6921D01*
X137062Y6124D01*
X136626Y5442D01*
X135959Y4985D01*
X135167Y4824D01*
X131069Y4824D01*
X129888Y3643D01*
X129244Y3209D01*
X128451Y3048D01*
X125549Y3048D01*
X124786Y3197D01*
X124112Y3643D01*
X122931Y4824D01*
X105669Y4824D01*
X104488Y3643D01*
X103844Y3209D01*
X103051Y3048D01*
X100149Y3048D01*
X99386Y3197D01*
X98712Y3643D01*
X97531Y4824D01*
X80269Y4824D01*
X79088Y3643D01*
X78444Y3209D01*
X77651Y3048D01*
X52904Y3048D01*
X52142Y3197D01*
X51467Y3643D01*
X41743Y13367D01*
X41309Y14012D01*
X41148Y14804D01*
X41148Y17215D01*
X41273Y17917D01*
X41698Y18605D01*
X42358Y19073D01*
X43148Y19247D01*
X43943Y19098D01*
X44617Y18652D01*
X47012Y16256D01*
X54588Y16256D01*
X59944Y21612D01*
X59944Y29188D01*
X54588Y34544D01*
X47012Y34544D01*
X44617Y32148D01*
X44032Y31740D01*
X43245Y31554D01*
X42448Y31690D01*
X41766Y32126D01*
X41309Y32793D01*
X41148Y33585D01*
X41148Y42615D01*
X41273Y43317D01*
X41698Y44005D01*
X42358Y44473D01*
X43148Y44647D01*
X43943Y44498D01*
X44617Y44052D01*
X47012Y41656D01*
X54588Y41656D01*
X59944Y47012D01*
X59944Y54588D01*
X54588Y59944D01*
X47012Y59944D01*
X44617Y57548D01*
X44032Y57140D01*
X43245Y56954D01*
X42448Y57090D01*
X41766Y57526D01*
X41309Y58193D01*
X41148Y58985D01*
X41148Y68015D01*
X41273Y68717D01*
X41698Y69405D01*
X42358Y69873D01*
X43148Y70047D01*
X43943Y69898D01*
X44617Y69452D01*
X47012Y67056D01*
X54588Y67056D01*
X59944Y72412D01*
X59944Y79988D01*
X54588Y85344D01*
X47012Y85344D01*
X44617Y82948D01*
X44032Y82540D01*
X43245Y82354D01*
X42448Y82490D01*
X41766Y82926D01*
X41309Y83593D01*
X41148Y84385D01*
X41148Y93415D01*
X41273Y94117D01*
X41698Y94805D01*
X42358Y95273D01*
X43148Y95447D01*
X43943Y95298D01*
X44617Y94852D01*
X47012Y92456D01*
X54588Y92456D01*
X59944Y97812D01*
X59944Y105388D01*
X54588Y110744D01*
X47012Y110744D01*
X44617Y108348D01*
X44032Y107940D01*
X43245Y107754D01*
X42448Y107890D01*
X41766Y108326D01*
X41309Y108993D01*
X41148Y109785D01*
X41148Y118815D01*
X41273Y119517D01*
X41698Y120205D01*
X42358Y120673D01*
X43148Y120847D01*
X43943Y120698D01*
X44617Y120252D01*
X47012Y117856D01*
X54588Y117856D01*
X59944Y123212D01*
X59944Y130788D01*
X54588Y136144D01*
X47012Y136144D01*
X44617Y133748D01*
X44032Y133340D01*
X43245Y133154D01*
X42448Y133290D01*
X41766Y133726D01*
X41309Y134393D01*
X41148Y135185D01*
X41148Y144215D01*
X41273Y144917D01*
X41698Y145605D01*
X42358Y146073D01*
X43148Y146247D01*
X43943Y146098D01*
X44617Y145652D01*
X47012Y143256D01*
X54588Y143256D01*
X59944Y148612D01*
X59944Y156188D01*
X54588Y161544D01*
X47012Y161544D01*
X44617Y159148D01*
X44032Y158740D01*
X43245Y158554D01*
X42448Y158690D01*
X41766Y159126D01*
X41309Y159793D01*
X41148Y160585D01*
X41148Y169615D01*
X41273Y170317D01*
X41698Y171005D01*
X42358Y171473D01*
X43148Y171647D01*
X43943Y171498D01*
X44617Y171052D01*
X47012Y168656D01*
X54792Y168656D01*
X55554Y168507D01*
X56229Y168061D01*
X62237Y162052D01*
X134403Y162052D01*
X135165Y161903D01*
X135839Y161457D01*
X136694Y160602D01*
X138645Y159794D01*
X140755Y159794D01*
X142706Y160602D01*
X144198Y162094D01*
X145006Y164045D01*
X145006Y166155D01*
X144198Y168106D01*
X143343Y168961D01*
X142909Y169605D01*
X142748Y170398D01*
X142748Y173944D01*
X142885Y174677D01*
X143320Y175358D01*
X143987Y175815D01*
X144593Y175938D01*
X146012Y177357D01*
X146656Y177791D01*
X147449Y177952D01*
X153544Y177952D01*
X154277Y177815D01*
X154958Y177380D01*
X155415Y176713D01*
X155576Y175920D01*
X155576Y173869D01*
X156469Y172976D01*
X173731Y172976D01*
X174624Y173869D01*
X174624Y188131D01*
X173692Y189063D01*
X173271Y189678D01*
X173097Y190468D01*
X173245Y191263D01*
X173692Y191937D01*
X174624Y192869D01*
X174624Y205090D01*
X174773Y205853D01*
X175219Y206527D01*
X190587Y221895D01*
X191172Y222303D01*
X191959Y222489D01*
X192757Y222354D01*
X193438Y221918D01*
X193895Y221251D01*
X194056Y220458D01*
X194056Y220349D01*
X194949Y219456D01*
X211451Y219456D01*
X212344Y220349D01*
X212344Y236851D01*
X212124Y237071D01*
X211716Y237656D01*
X211530Y238443D01*
X211666Y239241D01*
X212101Y239922D01*
X212768Y240379D01*
X213561Y240540D01*
X215900Y240540D01*
X216426Y240471D01*
X216580Y240430D01*
X217491Y239904D01*
X217604Y239791D01*
X218130Y238880D01*
X218171Y238726D01*
X218240Y238200D01*
X218240Y-133858D01*
X218103Y-134591D01*
X217668Y-135272D01*
X217001Y-135729D01*
G37*
%LPC*%
G36*
X138645Y58194D02*
X140755Y58194D01*
X142706Y59002D01*
X144198Y60494D01*
X145006Y62445D01*
X145006Y64555D01*
X144198Y66506D01*
X143343Y67361D01*
X142909Y68005D01*
X142748Y68798D01*
X142748Y72344D01*
X142885Y73077D01*
X143320Y73758D01*
X143987Y74215D01*
X144593Y74338D01*
X146012Y75757D01*
X146656Y76191D01*
X147449Y76352D01*
X153544Y76352D01*
X154277Y76215D01*
X154958Y75780D01*
X155415Y75113D01*
X155576Y74320D01*
X155576Y72269D01*
X156469Y71376D01*
X173731Y71376D01*
X174624Y72269D01*
X174624Y86531D01*
X173692Y87463D01*
X173271Y88078D01*
X173097Y88868D01*
X173245Y89663D01*
X173692Y90337D01*
X174624Y91269D01*
X174624Y103490D01*
X174773Y104253D01*
X175219Y104927D01*
X192343Y122051D01*
X192958Y122473D01*
X193748Y122646D01*
X194543Y122498D01*
X195217Y122051D01*
X199412Y117856D01*
X206988Y117856D01*
X212344Y123212D01*
X212344Y130788D01*
X206988Y136144D01*
X199412Y136144D01*
X196509Y133240D01*
X195924Y132832D01*
X195137Y132646D01*
X194340Y132782D01*
X193658Y133218D01*
X193201Y133885D01*
X193040Y134677D01*
X193040Y144723D01*
X193165Y145425D01*
X193590Y146113D01*
X194250Y146581D01*
X195040Y146755D01*
X195835Y146606D01*
X196509Y146160D01*
X199412Y143256D01*
X206988Y143256D01*
X212344Y148612D01*
X212344Y156188D01*
X206988Y161544D01*
X199412Y161544D01*
X196509Y158640D01*
X195924Y158232D01*
X195137Y158046D01*
X194340Y158182D01*
X193658Y158618D01*
X193201Y159285D01*
X193040Y160077D01*
X193040Y163206D01*
X193189Y163969D01*
X193635Y164643D01*
X197093Y168101D01*
X197709Y168523D01*
X198499Y168696D01*
X198714Y168656D01*
X206988Y168656D01*
X212344Y174012D01*
X212344Y181588D01*
X206988Y186944D01*
X199412Y186944D01*
X196509Y184040D01*
X195924Y183632D01*
X195137Y183446D01*
X194340Y183582D01*
X193658Y184018D01*
X193201Y184685D01*
X193040Y185477D01*
X193040Y188606D01*
X193189Y189369D01*
X193635Y190043D01*
X197093Y193501D01*
X197709Y193923D01*
X198499Y194096D01*
X198714Y194056D01*
X206988Y194056D01*
X212344Y199412D01*
X212344Y206988D01*
X206988Y212344D01*
X199412Y212344D01*
X194056Y206988D01*
X194056Y198746D01*
X194096Y198563D01*
X193948Y197768D01*
X193501Y197093D01*
X187960Y191552D01*
X187960Y179694D01*
X187811Y178931D01*
X187365Y178257D01*
X166927Y157819D01*
X166283Y157385D01*
X165490Y157224D01*
X156469Y157224D01*
X155576Y156331D01*
X155576Y153772D01*
X155439Y153040D01*
X155004Y152358D01*
X154337Y151901D01*
X153544Y151740D01*
X147556Y151740D01*
X146824Y151877D01*
X146142Y152312D01*
X145685Y152979D01*
X145636Y153219D01*
X144631Y154224D01*
X133369Y154224D01*
X132476Y153331D01*
X132476Y145069D01*
X133369Y144176D01*
X144631Y144176D01*
X145625Y145170D01*
X145661Y145361D01*
X146096Y146042D01*
X146763Y146499D01*
X147556Y146660D01*
X153544Y146660D01*
X154277Y146523D01*
X154958Y146088D01*
X155415Y145421D01*
X155576Y144628D01*
X155576Y142069D01*
X156508Y141137D01*
X156929Y140522D01*
X157103Y139732D01*
X156955Y138937D01*
X156508Y138263D01*
X155576Y137331D01*
X155576Y135280D01*
X155439Y134548D01*
X155004Y133866D01*
X154337Y133409D01*
X153544Y133248D01*
X147449Y133248D01*
X146686Y133397D01*
X146012Y133843D01*
X144631Y135224D01*
X133369Y135224D01*
X132476Y134331D01*
X132476Y126069D01*
X133369Y125176D01*
X134620Y125176D01*
X135353Y125039D01*
X136034Y124604D01*
X136491Y123937D01*
X136652Y123144D01*
X136652Y119598D01*
X136503Y118835D01*
X136057Y118161D01*
X135202Y117306D01*
X134394Y115355D01*
X134394Y113245D01*
X135202Y111294D01*
X136694Y109802D01*
X138645Y108994D01*
X140755Y108994D01*
X142706Y109802D01*
X144198Y111294D01*
X145006Y113245D01*
X145006Y115355D01*
X144198Y117306D01*
X143343Y118161D01*
X142909Y118805D01*
X142748Y119598D01*
X142748Y123144D01*
X142885Y123877D01*
X143320Y124558D01*
X143987Y125015D01*
X144593Y125138D01*
X146012Y126557D01*
X146656Y126991D01*
X147449Y127152D01*
X153544Y127152D01*
X154277Y127015D01*
X154958Y126580D01*
X155415Y125913D01*
X155576Y125120D01*
X155576Y123069D01*
X156469Y122176D01*
X173731Y122176D01*
X174624Y123069D01*
X174624Y137331D01*
X173692Y138263D01*
X173271Y138878D01*
X173097Y139668D01*
X173245Y140463D01*
X173692Y141137D01*
X174624Y142069D01*
X174624Y156578D01*
X174466Y157299D01*
X174614Y158094D01*
X175061Y158768D01*
X184491Y168199D01*
X185076Y168607D01*
X185863Y168793D01*
X186661Y168658D01*
X187342Y168222D01*
X187799Y167555D01*
X187960Y166762D01*
X187960Y125694D01*
X187811Y124931D01*
X187365Y124257D01*
X170127Y107019D01*
X169483Y106585D01*
X168690Y106424D01*
X156469Y106424D01*
X155576Y105531D01*
X155576Y102972D01*
X155439Y102240D01*
X155004Y101558D01*
X154337Y101101D01*
X153544Y100940D01*
X147556Y100940D01*
X146824Y101077D01*
X146142Y101512D01*
X145685Y102179D01*
X145636Y102419D01*
X144631Y103424D01*
X133369Y103424D01*
X132476Y102531D01*
X132476Y94269D01*
X133369Y93376D01*
X144631Y93376D01*
X145625Y94370D01*
X145661Y94561D01*
X146096Y95242D01*
X146763Y95699D01*
X147556Y95860D01*
X153544Y95860D01*
X154277Y95723D01*
X154958Y95288D01*
X155415Y94621D01*
X155576Y93828D01*
X155576Y91269D01*
X156508Y90337D01*
X156929Y89722D01*
X157103Y88932D01*
X156955Y88137D01*
X156508Y87463D01*
X155576Y86531D01*
X155576Y84480D01*
X155439Y83748D01*
X155004Y83066D01*
X154337Y82609D01*
X153544Y82448D01*
X147449Y82448D01*
X146686Y82597D01*
X146012Y83043D01*
X144631Y84424D01*
X133369Y84424D01*
X132476Y83531D01*
X132476Y75269D01*
X133369Y74376D01*
X134620Y74376D01*
X135353Y74239D01*
X136034Y73804D01*
X136491Y73137D01*
X136652Y72344D01*
X136652Y68798D01*
X136503Y68035D01*
X136057Y67361D01*
X135202Y66506D01*
X134394Y64555D01*
X134394Y62445D01*
X135202Y60494D01*
X136694Y59002D01*
X138645Y58194D01*
G37*
G36*
X75145Y134394D02*
X77255Y134394D01*
X79206Y135202D01*
X80569Y136565D01*
X81213Y136999D01*
X82006Y137160D01*
X106444Y137160D01*
X107177Y137023D01*
X107858Y136588D01*
X108315Y135921D01*
X108364Y135681D01*
X109369Y134676D01*
X120631Y134676D01*
X121524Y135569D01*
X121524Y143831D01*
X120631Y144724D01*
X109369Y144724D01*
X108375Y143730D01*
X108339Y143540D01*
X107904Y142858D01*
X107237Y142401D01*
X106444Y142240D01*
X82006Y142240D01*
X81243Y142389D01*
X80569Y142835D01*
X79206Y144198D01*
X77255Y145006D01*
X75145Y145006D01*
X73194Y144198D01*
X71702Y142706D01*
X70894Y140755D01*
X70894Y138645D01*
X71702Y136694D01*
X73194Y135202D01*
X75145Y134394D01*
G37*
G36*
X199412Y92456D02*
X206988Y92456D01*
X212344Y97812D01*
X212344Y105388D01*
X206988Y110744D01*
X199412Y110744D01*
X194056Y105388D01*
X194056Y97812D01*
X199412Y92456D01*
G37*
G36*
X87845Y83594D02*
X89955Y83594D01*
X91906Y84402D01*
X93269Y85765D01*
X93913Y86199D01*
X94706Y86360D01*
X106444Y86360D01*
X107177Y86223D01*
X107858Y85788D01*
X108315Y85121D01*
X108364Y84881D01*
X109369Y83876D01*
X120631Y83876D01*
X121524Y84769D01*
X121524Y93031D01*
X120631Y93924D01*
X109369Y93924D01*
X108375Y92930D01*
X108339Y92740D01*
X107904Y92058D01*
X107237Y91601D01*
X106444Y91440D01*
X94706Y91440D01*
X93943Y91589D01*
X93269Y92035D01*
X91906Y93398D01*
X89955Y94206D01*
X87845Y94206D01*
X85894Y93398D01*
X84402Y91906D01*
X83594Y89955D01*
X83594Y87845D01*
X84402Y85894D01*
X85894Y84402D01*
X87845Y83594D01*
G37*
G36*
X199412Y67056D02*
X206988Y67056D01*
X212344Y72412D01*
X212344Y79988D01*
X206988Y85344D01*
X199412Y85344D01*
X194056Y79988D01*
X194056Y72412D01*
X199412Y67056D01*
G37*
G36*
X199412Y41656D02*
X206988Y41656D01*
X212344Y47012D01*
X212344Y54588D01*
X206988Y59944D01*
X199412Y59944D01*
X194056Y54588D01*
X194056Y47012D01*
X199412Y41656D01*
G37*
G36*
X100545Y32794D02*
X102655Y32794D01*
X104606Y33602D01*
X105287Y34284D01*
X105902Y34705D01*
X106692Y34879D01*
X107487Y34730D01*
X108161Y34284D01*
X109369Y33076D01*
X120631Y33076D01*
X121524Y33969D01*
X121524Y42231D01*
X120631Y43124D01*
X109369Y43124D01*
X108161Y41916D01*
X107547Y41495D01*
X106757Y41321D01*
X105962Y41470D01*
X105287Y41916D01*
X104606Y42598D01*
X102655Y43406D01*
X100545Y43406D01*
X98594Y42598D01*
X97102Y41106D01*
X96294Y39155D01*
X96294Y37045D01*
X97102Y35094D01*
X98594Y33602D01*
X100545Y32794D01*
G37*
G36*
X154940Y-118618D02*
X163068Y-118618D01*
X163068Y-110490D01*
X160892Y-110490D01*
X154940Y-116442D01*
X154940Y-118618D01*
G37*
G36*
X167132Y-118618D02*
X175260Y-118618D01*
X175260Y-116442D01*
X169308Y-110490D01*
X167132Y-110490D01*
X167132Y-118618D01*
G37*
G36*
X167132Y-130810D02*
X169308Y-130810D01*
X175260Y-124858D01*
X175260Y-122682D01*
X167132Y-122682D01*
X167132Y-130810D01*
G37*
G36*
X160892Y-130810D02*
X163068Y-130810D01*
X163068Y-122682D01*
X154940Y-122682D01*
X154940Y-124858D01*
X160892Y-130810D01*
G37*
%LPD*%
D10*
X50800Y228600D03*
D11*
X50800Y203200D03*
X50800Y177800D03*
X50800Y152400D03*
X50800Y127000D03*
X50800Y101600D03*
X50800Y76200D03*
X50800Y50800D03*
X50800Y25400D03*
D10*
X203200Y228600D03*
D11*
X203200Y203200D03*
X203200Y177800D03*
X203200Y152400D03*
X203200Y127000D03*
X203200Y101600D03*
X203200Y76200D03*
X203200Y50800D03*
X203200Y25400D03*
D12*
X139000Y181000D03*
X139000Y200000D03*
X115000Y190500D03*
X139000Y130200D03*
X139000Y149200D03*
X115000Y139700D03*
X139000Y79400D03*
X139000Y98400D03*
X115000Y88900D03*
X139000Y28600D03*
X139000Y47600D03*
X115000Y38100D03*
D13*
X165100Y200000D03*
X165100Y181000D03*
X165100Y-22200D03*
X165100Y-3200D03*
X88900Y-22200D03*
X88900Y-3200D03*
X165100Y149200D03*
X165100Y130200D03*
X114300Y-22200D03*
X114300Y-3200D03*
X165100Y98400D03*
X165100Y79400D03*
X139700Y-22200D03*
X139700Y-3200D03*
X165100Y47600D03*
X165100Y28600D03*
D10*
X88900Y-63500D03*
D14*
X114300Y-63500D03*
X139700Y-63500D03*
X165100Y-63500D03*
D10*
X88900Y-120650D03*
D14*
X114300Y-120650D03*
X139700Y-120650D03*
X165100Y-120650D03*
D15*
X50800Y-8900D03*
X50800Y-41900D03*
D16*
X76200Y139700D03*
D17*
X115000Y139700D01*
X114300Y-38100D02*
X139700Y-63500D01*
X114300Y-38100D02*
X114300Y-22200D01*
D18*
X139000Y130200D02*
X139700Y130200D01*
X165100Y130200D01*
X165100Y79400D02*
X139000Y79400D01*
X139000Y28600D02*
X165100Y28600D01*
X165100Y181000D02*
X139000Y181000D01*
X139700Y165100D02*
X63500Y165100D01*
X50800Y177800D01*
X139700Y180300D02*
X139700Y165100D01*
X139700Y180300D02*
X139000Y181000D01*
D16*
X139700Y165100D03*
X139700Y114300D03*
D18*
X139700Y130200D01*
D16*
X139700Y63500D03*
D18*
X139700Y78700D02*
X139000Y79400D01*
X139700Y78700D02*
X139700Y63500D01*
X139000Y28600D02*
X139700Y27900D01*
X139700Y12700D01*
D16*
X139700Y12700D03*
D18*
X88900Y-3200D02*
X85700Y0D01*
X88900Y-3200D02*
X92100Y0D01*
X114300Y0D01*
X139700Y-3200D02*
X141300Y-1600D01*
X142900Y0D01*
X165100Y0D01*
X165100Y-3200D01*
X117500Y-3200D02*
X114300Y0D01*
X114300Y-3200D01*
X117500Y0D01*
X139700Y0D02*
X141300Y-1600D01*
X139700Y0D02*
X117500Y0D01*
X38100Y12700D02*
X38100Y215900D01*
X50800Y228600D01*
X50800Y0D02*
X85700Y0D01*
X50800Y0D02*
X38100Y12700D01*
D19*
X50800Y0D02*
X50800Y-8900D01*
D17*
X139000Y200000D02*
X165100Y200000D01*
X193700Y228600D01*
X203200Y228600D01*
X165100Y149200D02*
X139000Y149200D01*
X165100Y149200D02*
X165100Y152400D01*
X190500Y177800D02*
X190500Y190500D01*
X203200Y203200D01*
X190500Y177800D02*
X165100Y152400D01*
X190500Y123800D02*
X165100Y98400D01*
X190500Y165100D02*
X203200Y177800D01*
X190500Y165100D02*
X190500Y123800D01*
X165100Y98400D02*
X139000Y98400D01*
X139000Y47600D02*
X165100Y47600D01*
X168300Y47600D01*
X190500Y25400D02*
X203200Y25400D01*
X190500Y25400D02*
X168300Y47600D01*
X50800Y28812D02*
X50800Y25400D01*
D16*
X101600Y57150D03*
D17*
X88900Y88900D02*
X115000Y88900D01*
D16*
X88900Y88900D03*
D17*
X152400Y-82550D02*
X114300Y-120650D01*
X152400Y-34900D02*
X139700Y-22200D01*
X152400Y-38100D02*
X152400Y-82550D01*
X152400Y-38100D02*
X152400Y-34900D01*
D16*
X152400Y-38100D03*
D17*
X115000Y38100D02*
X101600Y38100D01*
D16*
X101600Y38100D03*
D17*
X177800Y-82550D02*
X139700Y-120650D01*
X177800Y-82550D02*
X177800Y-38100D01*
X177800Y-34900D01*
X165100Y-22200D01*
D16*
X177800Y-38100D03*
X63500Y190500D03*
D17*
X115000Y190500D01*
X88900Y-38100D02*
X114300Y-63500D01*
X88900Y-38100D02*
X88900Y-22200D01*
D19*
X88900Y-63500D02*
X88900Y-120650D01*
X88900Y-63500D02*
X67300Y-41900D01*
X50800Y-41900D01*
M02*
