M48
;GenerationSoftware,Autodesk,EAGLE,9.7.0*%
;CreationDate,2026-05-14T04:46:31Z*%
FMAT,2
ICI,OFF
METRIC,TZ,000.000
T2C0.350
T1C1.016
%
G90
M71
T1
X5080Y5080
X20320Y7620
X20320Y5080
X20320Y2540
X8890Y-6350
X11430Y-6350
X13970Y-6350
X16510Y-6350
X8890Y-12065
X11430Y-12065
X13970Y-12065
X5080Y22860
X5080Y20320
X5080Y17780
X5080Y15240
X5080Y12700
X5080Y10160
X5080Y7620
X16510Y-12065
X5080Y2540
X20320Y22860
X20320Y20320
X20320Y17780
X20320Y15240
X20320Y12700
X20320Y10160
T2
X13970Y16510
X13970Y11430
X13970Y6350
X13970Y1270
X10160Y5715
X8890Y8890
X15240Y-3810
X10160Y3810
X17780Y-3810
X6350Y19050
X7620Y13970
M30