G04 EAGLE Gerber RS-274X export*
G75*
%MOMM*%
%FSLAX34Y34*%
%LPD*%
%INMechanical*%
%IPPOS*%
%AMOC8*
5,1,8,0,0,1.08239X$1,22.5*%
G01*
G04 Define Apertures*
%ADD10C,0.000000*%
%ADD11C,0.254000*%
D10*
X25400Y241300D02*
X25400Y-139700D01*
X25402Y-139858D01*
X25408Y-140017D01*
X25418Y-140175D01*
X25432Y-140332D01*
X25449Y-140490D01*
X25471Y-140646D01*
X25496Y-140803D01*
X25526Y-140958D01*
X25559Y-141113D01*
X25596Y-141267D01*
X25637Y-141420D01*
X25682Y-141572D01*
X25731Y-141722D01*
X25783Y-141872D01*
X25839Y-142020D01*
X25899Y-142167D01*
X25962Y-142312D01*
X26029Y-142455D01*
X26099Y-142597D01*
X26173Y-142737D01*
X26251Y-142875D01*
X26332Y-143011D01*
X26416Y-143145D01*
X26503Y-143277D01*
X26594Y-143407D01*
X26688Y-143534D01*
X26785Y-143659D01*
X26886Y-143782D01*
X26989Y-143902D01*
X27095Y-144019D01*
X27204Y-144134D01*
X27316Y-144246D01*
X27431Y-144355D01*
X27548Y-144461D01*
X27668Y-144564D01*
X27791Y-144665D01*
X27916Y-144762D01*
X28043Y-144856D01*
X28173Y-144947D01*
X28305Y-145034D01*
X28439Y-145118D01*
X28575Y-145199D01*
X28713Y-145277D01*
X28853Y-145351D01*
X28995Y-145421D01*
X29138Y-145488D01*
X29283Y-145551D01*
X29430Y-145611D01*
X29578Y-145667D01*
X29728Y-145719D01*
X29878Y-145768D01*
X30030Y-145813D01*
X30183Y-145854D01*
X30337Y-145891D01*
X30492Y-145924D01*
X30647Y-145954D01*
X30804Y-145979D01*
X30960Y-146001D01*
X31118Y-146018D01*
X31275Y-146032D01*
X31433Y-146042D01*
X31592Y-146048D01*
X31750Y-146050D01*
X222050Y-146050D01*
X222208Y-146048D01*
X222367Y-146042D01*
X222525Y-146032D01*
X222682Y-146018D01*
X222840Y-146001D01*
X222996Y-145979D01*
X223153Y-145954D01*
X223308Y-145924D01*
X223463Y-145891D01*
X223617Y-145854D01*
X223770Y-145813D01*
X223922Y-145768D01*
X224072Y-145719D01*
X224222Y-145667D01*
X224370Y-145611D01*
X224517Y-145551D01*
X224662Y-145488D01*
X224805Y-145421D01*
X224947Y-145351D01*
X225087Y-145277D01*
X225225Y-145199D01*
X225361Y-145118D01*
X225495Y-145034D01*
X225627Y-144947D01*
X225757Y-144856D01*
X225884Y-144762D01*
X226009Y-144665D01*
X226132Y-144564D01*
X226252Y-144461D01*
X226369Y-144355D01*
X226484Y-144246D01*
X226596Y-144134D01*
X226705Y-144019D01*
X226811Y-143902D01*
X226914Y-143782D01*
X227015Y-143659D01*
X227112Y-143534D01*
X227206Y-143407D01*
X227297Y-143277D01*
X227384Y-143145D01*
X227468Y-143011D01*
X227549Y-142875D01*
X227627Y-142737D01*
X227701Y-142597D01*
X227771Y-142455D01*
X227838Y-142312D01*
X227901Y-142167D01*
X227961Y-142020D01*
X228017Y-141872D01*
X228069Y-141722D01*
X228118Y-141572D01*
X228163Y-141420D01*
X228204Y-141267D01*
X228241Y-141113D01*
X228274Y-140958D01*
X228304Y-140803D01*
X228329Y-140646D01*
X228351Y-140490D01*
X228368Y-140332D01*
X228382Y-140175D01*
X228392Y-140017D01*
X228398Y-139858D01*
X228400Y-139700D01*
X228400Y238200D01*
X228396Y238502D01*
X228385Y238804D01*
X228367Y239105D01*
X228342Y239406D01*
X228309Y239707D01*
X228269Y240006D01*
X228222Y240304D01*
X228167Y240602D01*
X228106Y240897D01*
X228037Y241191D01*
X227961Y241484D01*
X227878Y241774D01*
X227788Y242063D01*
X227691Y242349D01*
X227588Y242633D01*
X227477Y242914D01*
X227360Y243192D01*
X227236Y243468D01*
X227105Y243740D01*
X226968Y244009D01*
X226825Y244275D01*
X226675Y244537D01*
X226518Y244796D01*
X226356Y245050D01*
X226187Y245301D01*
X226013Y245547D01*
X225832Y245790D01*
X225646Y246027D01*
X225454Y246261D01*
X225256Y246489D01*
X225053Y246713D01*
X224845Y246931D01*
X224631Y247145D01*
X224413Y247353D01*
X224189Y247556D01*
X223961Y247754D01*
X223727Y247946D01*
X223490Y248132D01*
X223247Y248313D01*
X223001Y248487D01*
X222750Y248656D01*
X222496Y248818D01*
X222237Y248975D01*
X221975Y249125D01*
X221709Y249268D01*
X221440Y249405D01*
X221168Y249536D01*
X220892Y249660D01*
X220614Y249777D01*
X220333Y249888D01*
X220049Y249991D01*
X219763Y250088D01*
X219474Y250178D01*
X219184Y250261D01*
X218891Y250337D01*
X218597Y250406D01*
X218302Y250467D01*
X218004Y250522D01*
X217706Y250569D01*
X217407Y250609D01*
X217106Y250642D01*
X216805Y250667D01*
X216504Y250685D01*
X216202Y250696D01*
X215900Y250700D01*
X34800Y250700D01*
X34573Y250697D01*
X34346Y250689D01*
X34119Y250675D01*
X33893Y250656D01*
X33667Y250631D01*
X33442Y250601D01*
X33217Y250566D01*
X32994Y250525D01*
X32772Y250479D01*
X32550Y250427D01*
X32331Y250370D01*
X32112Y250308D01*
X31895Y250240D01*
X31680Y250167D01*
X31467Y250089D01*
X31255Y250006D01*
X31046Y249918D01*
X30839Y249825D01*
X30634Y249726D01*
X30432Y249623D01*
X30232Y249515D01*
X30035Y249403D01*
X29840Y249285D01*
X29649Y249163D01*
X29460Y249036D01*
X29275Y248905D01*
X29093Y248769D01*
X28914Y248629D01*
X28738Y248485D01*
X28567Y248336D01*
X28398Y248183D01*
X28234Y248027D01*
X28073Y247866D01*
X27917Y247702D01*
X27764Y247533D01*
X27615Y247362D01*
X27471Y247186D01*
X27331Y247007D01*
X27195Y246825D01*
X27064Y246640D01*
X26937Y246451D01*
X26815Y246260D01*
X26697Y246065D01*
X26585Y245868D01*
X26477Y245668D01*
X26374Y245466D01*
X26275Y245261D01*
X26182Y245054D01*
X26094Y244845D01*
X26011Y244633D01*
X25933Y244420D01*
X25860Y244205D01*
X25792Y243988D01*
X25730Y243769D01*
X25673Y243550D01*
X25621Y243328D01*
X25575Y243106D01*
X25534Y242883D01*
X25499Y242658D01*
X25469Y242433D01*
X25444Y242207D01*
X25425Y241981D01*
X25411Y241754D01*
X25403Y241527D01*
X25400Y241300D01*
D11*
X25400Y-139700D02*
X25424Y-140253D01*
X25496Y-140803D01*
X25616Y-141344D01*
X25783Y-141872D01*
X25995Y-142384D01*
X26251Y-142875D01*
X26548Y-143342D01*
X26886Y-143782D01*
X27260Y-144190D01*
X27668Y-144564D01*
X28108Y-144902D01*
X28575Y-145199D01*
X29066Y-145455D01*
X29578Y-145667D01*
X30107Y-145834D01*
X30647Y-145954D01*
X31197Y-146026D01*
X31750Y-146050D01*
X222050Y-146050D01*
X222603Y-146026D01*
X223153Y-145954D01*
X223694Y-145834D01*
X224222Y-145667D01*
X224734Y-145455D01*
X225225Y-145199D01*
X225692Y-144902D01*
X226132Y-144564D01*
X226540Y-144190D01*
X226914Y-143782D01*
X227252Y-143342D01*
X227549Y-142875D01*
X227805Y-142384D01*
X228017Y-141872D01*
X228184Y-141344D01*
X228304Y-140803D01*
X228376Y-140253D01*
X228400Y-139700D01*
X228400Y238200D01*
X228352Y239289D01*
X228210Y240371D01*
X227974Y241435D01*
X227646Y242475D01*
X227229Y243483D01*
X226725Y244450D01*
X226139Y245370D01*
X225476Y246235D01*
X224739Y247039D01*
X223935Y247776D01*
X223070Y248439D01*
X222150Y249025D01*
X221183Y249529D01*
X220175Y249946D01*
X219135Y250274D01*
X218071Y250510D01*
X216989Y250652D01*
X215900Y250700D01*
X34800Y250700D01*
X33981Y250664D01*
X33168Y250557D01*
X32367Y250380D01*
X31585Y250133D01*
X30827Y249819D01*
X30100Y249441D01*
X29408Y249000D01*
X28758Y248501D01*
X28153Y247947D01*
X27599Y247342D01*
X27100Y246692D01*
X26659Y246000D01*
X26281Y245273D01*
X25967Y244515D01*
X25720Y243733D01*
X25543Y242932D01*
X25436Y242119D01*
X25400Y241300D01*
X25400Y-139700D01*
M02*
