G04 EAGLE Gerber RS-274X export*
G75*
%MOMM*%
%FSLAX34Y34*%
%LPD*%
%INTop Solder Mask*%
%IPPOS*%
%AMOC8*
5,1,8,0,0,1.08239X$1,22.5*%
G01*
G04 Define Apertures*
%ADD10R,1.727200X1.727200*%
%ADD11P,1.8695X8X22.5*%
%ADD12R,1.203200X0.903200*%
%ADD13R,1.803200X1.503200*%
%ADD14P,1.8695X8X112.5*%
%ADD15R,2.023200X1.023200*%
%ADD16C,0.959600*%
D10*
X50800Y228600D03*
D11*
X50800Y203200D03*
X50800Y177800D03*
X50800Y152400D03*
X50800Y127000D03*
X50800Y101600D03*
X50800Y76200D03*
X50800Y50800D03*
X50800Y25400D03*
D10*
X203200Y228600D03*
D11*
X203200Y203200D03*
X203200Y177800D03*
X203200Y152400D03*
X203200Y127000D03*
X203200Y101600D03*
X203200Y76200D03*
X203200Y50800D03*
X203200Y25400D03*
D12*
X139000Y181000D03*
X139000Y200000D03*
X115000Y190500D03*
X139000Y130200D03*
X139000Y149200D03*
X115000Y139700D03*
X139000Y79400D03*
X139000Y98400D03*
X115000Y88900D03*
X139000Y28600D03*
X139000Y47600D03*
X115000Y38100D03*
D13*
X165100Y200000D03*
X165100Y181000D03*
X165100Y-22200D03*
X165100Y-3200D03*
X88900Y-22200D03*
X88900Y-3200D03*
X165100Y149200D03*
X165100Y130200D03*
X114300Y-22200D03*
X114300Y-3200D03*
X165100Y98400D03*
X165100Y79400D03*
X139700Y-22200D03*
X139700Y-3200D03*
X165100Y47600D03*
X165100Y28600D03*
D10*
X88900Y-63500D03*
D14*
X114300Y-63500D03*
X139700Y-63500D03*
X165100Y-63500D03*
D10*
X88900Y-120650D03*
D14*
X114300Y-120650D03*
X139700Y-120650D03*
X165100Y-120650D03*
D15*
X50800Y-8900D03*
X50800Y-41900D03*
D16*
X76200Y139700D03*
X139700Y165100D03*
X139700Y114300D03*
X139700Y63500D03*
X139700Y12700D03*
X101600Y57150D03*
X88900Y88900D03*
X152400Y-38100D03*
X101600Y38100D03*
X177800Y-38100D03*
X63500Y190500D03*
M02*
