G04 EAGLE Gerber RS-274X export*
G75*
%MOMM*%
%FSLAX34Y34*%
%LPD*%
%INTop Silkscreen*%
%IPPOS*%
%AMOC8*
5,1,8,0,0,1.08239X$1,22.5*%
G01*
G04 Define Apertures*
%ADD10C,0.304800*%
%ADD11C,0.254000*%
%ADD12C,0.200000*%
G36*
X55788Y-70612D02*
X50778Y-70612D01*
X50778Y-58271D01*
X55263Y-58271D01*
X55789Y-58283D01*
X56281Y-58318D01*
X56739Y-58377D01*
X57163Y-58458D01*
X57553Y-58564D01*
X57910Y-58692D01*
X58232Y-58845D01*
X58521Y-59020D01*
X58775Y-59219D01*
X58996Y-59441D01*
X59183Y-59687D01*
X59335Y-59956D01*
X59454Y-60249D01*
X59539Y-60565D01*
X59590Y-60904D01*
X59607Y-61267D01*
X59597Y-61535D01*
X59568Y-61792D01*
X59521Y-62039D01*
X59454Y-62274D01*
X59367Y-62498D01*
X59262Y-62712D01*
X59137Y-62914D01*
X58994Y-63106D01*
X58832Y-63284D01*
X58733Y-63376D01*
X58655Y-63448D01*
X58462Y-63595D01*
X58254Y-63728D01*
X58029Y-63845D01*
X57788Y-63947D01*
X57532Y-64033D01*
X57260Y-64104D01*
X57617Y-64158D01*
X57953Y-64232D01*
X58268Y-64325D01*
X58562Y-64438D01*
X58835Y-64571D01*
X59087Y-64724D01*
X59318Y-64897D01*
X59415Y-64986D01*
X59528Y-65090D01*
X59715Y-65299D01*
X59877Y-65521D01*
X60014Y-65757D01*
X60126Y-66006D01*
X60213Y-66268D01*
X60275Y-66544D01*
X60313Y-66833D01*
X60325Y-67135D01*
X60306Y-67535D01*
X60250Y-67912D01*
X60156Y-68267D01*
X60025Y-68599D01*
X59856Y-68907D01*
X59650Y-69193D01*
X59406Y-69457D01*
X59125Y-69697D01*
X58810Y-69911D01*
X58467Y-70097D01*
X58093Y-70255D01*
X57691Y-70383D01*
X57259Y-70483D01*
X56798Y-70555D01*
X56308Y-70598D01*
X55788Y-70612D01*
G37*
%LPC*%
G36*
X55700Y-69272D02*
X56071Y-69263D01*
X56415Y-69236D01*
X56733Y-69192D01*
X57025Y-69130D01*
X57291Y-69050D01*
X57532Y-68952D01*
X57746Y-68836D01*
X57934Y-68703D01*
X58098Y-68552D01*
X58240Y-68383D01*
X58361Y-68197D01*
X58459Y-67993D01*
X58536Y-67772D01*
X58591Y-67533D01*
X58624Y-67277D01*
X58635Y-67004D01*
X58623Y-66739D01*
X58587Y-66492D01*
X58527Y-66262D01*
X58443Y-66049D01*
X58335Y-65853D01*
X58204Y-65675D01*
X58048Y-65513D01*
X57868Y-65368D01*
X57665Y-65240D01*
X57437Y-65129D01*
X57186Y-65036D01*
X56910Y-64959D01*
X56611Y-64899D01*
X56288Y-64857D01*
X55940Y-64831D01*
X55569Y-64823D01*
X52451Y-64823D01*
X52451Y-69272D01*
X55700Y-69272D01*
G37*
G36*
X55263Y-63518D02*
X55587Y-63510D01*
X55890Y-63486D01*
X56172Y-63447D01*
X56433Y-63392D01*
X56672Y-63321D01*
X56891Y-63234D01*
X57088Y-63132D01*
X57264Y-63014D01*
X57419Y-62880D01*
X57553Y-62729D01*
X57667Y-62561D01*
X57760Y-62376D01*
X57832Y-62174D01*
X57884Y-61956D01*
X57915Y-61720D01*
X57925Y-61468D01*
X57914Y-61227D01*
X57882Y-61004D01*
X57829Y-60799D01*
X57754Y-60612D01*
X57658Y-60442D01*
X57541Y-60291D01*
X57402Y-60157D01*
X57242Y-60040D01*
X57062Y-59940D01*
X56862Y-59853D01*
X56643Y-59779D01*
X56406Y-59719D01*
X56149Y-59672D01*
X55872Y-59638D01*
X55577Y-59618D01*
X55263Y-59611D01*
X52451Y-59611D01*
X52451Y-63518D01*
X55263Y-63518D01*
G37*
%LPD*%
G36*
X40482Y-70612D02*
X38809Y-70612D01*
X38809Y-58271D01*
X40482Y-58271D01*
X40482Y-64455D01*
X46429Y-58271D01*
X48400Y-58271D01*
X43145Y-63631D01*
X49101Y-70612D01*
X47025Y-70612D01*
X42094Y-64656D01*
X40482Y-65882D01*
X40482Y-70612D01*
G37*
G36*
X40298Y-127762D02*
X38809Y-127762D01*
X38809Y-115421D01*
X41008Y-115421D01*
X44292Y-123978D01*
X44464Y-124514D01*
X44629Y-125086D01*
X44844Y-125940D01*
X44952Y-125499D01*
X45137Y-124876D01*
X45325Y-124295D01*
X45440Y-123978D01*
X48663Y-115421D01*
X50809Y-115421D01*
X50809Y-127762D01*
X49302Y-127762D01*
X49302Y-119529D01*
X49322Y-118189D01*
X49381Y-116901D01*
X48974Y-118298D01*
X48787Y-118869D01*
X48610Y-119354D01*
X45422Y-127762D01*
X44248Y-127762D01*
X41017Y-119354D01*
X40526Y-117865D01*
X40237Y-116901D01*
X40263Y-117874D01*
X40298Y-119529D01*
X40298Y-127762D01*
G37*
G36*
X58319Y-127937D02*
X57770Y-127925D01*
X57250Y-127888D01*
X56761Y-127827D01*
X56301Y-127741D01*
X55870Y-127631D01*
X55469Y-127496D01*
X55098Y-127337D01*
X54756Y-127153D01*
X54444Y-126945D01*
X54162Y-126712D01*
X53909Y-126455D01*
X53686Y-126173D01*
X53493Y-125867D01*
X53329Y-125537D01*
X53195Y-125181D01*
X53090Y-124802D01*
X54710Y-124478D01*
X54790Y-124746D01*
X54890Y-124997D01*
X55009Y-125229D01*
X55148Y-125442D01*
X55307Y-125637D01*
X55486Y-125814D01*
X55684Y-125972D01*
X55902Y-126111D01*
X56140Y-126233D01*
X56398Y-126339D01*
X56677Y-126429D01*
X56977Y-126502D01*
X57297Y-126559D01*
X57637Y-126600D01*
X57999Y-126624D01*
X58380Y-126632D01*
X58774Y-126623D01*
X59144Y-126597D01*
X59491Y-126554D01*
X59816Y-126493D01*
X60117Y-126415D01*
X60394Y-126319D01*
X60649Y-126206D01*
X60881Y-126076D01*
X61087Y-125929D01*
X61266Y-125765D01*
X61417Y-125586D01*
X61541Y-125390D01*
X61637Y-125177D01*
X61706Y-124949D01*
X61747Y-124704D01*
X61761Y-124443D01*
X61744Y-124155D01*
X61692Y-123895D01*
X61606Y-123664D01*
X61485Y-123462D01*
X61333Y-123281D01*
X61153Y-123118D01*
X60946Y-122971D01*
X60710Y-122840D01*
X60448Y-122722D01*
X60163Y-122614D01*
X59853Y-122516D01*
X59519Y-122428D01*
X57986Y-122069D01*
X57299Y-121907D01*
X56700Y-121745D01*
X56189Y-121583D01*
X55766Y-121421D01*
X55407Y-121254D01*
X55088Y-121078D01*
X54809Y-120893D01*
X54570Y-120698D01*
X54364Y-120491D01*
X54184Y-120266D01*
X54029Y-120024D01*
X53900Y-119765D01*
X53799Y-119488D01*
X53726Y-119192D01*
X53683Y-118875D01*
X53668Y-118539D01*
X53687Y-118154D01*
X53744Y-117792D01*
X53839Y-117453D01*
X53971Y-117136D01*
X54142Y-116842D01*
X54350Y-116570D01*
X54597Y-116322D01*
X54881Y-116096D01*
X55201Y-115894D01*
X55553Y-115720D01*
X55938Y-115573D01*
X56356Y-115452D01*
X56806Y-115358D01*
X57289Y-115291D01*
X57805Y-115251D01*
X58354Y-115237D01*
X58864Y-115247D01*
X59343Y-115278D01*
X59791Y-115328D01*
X60209Y-115398D01*
X60595Y-115489D01*
X60950Y-115599D01*
X61275Y-115730D01*
X61568Y-115881D01*
X61836Y-116056D01*
X62083Y-116260D01*
X62309Y-116491D01*
X62514Y-116751D01*
X62699Y-117040D01*
X62862Y-117357D01*
X63005Y-117702D01*
X63127Y-118075D01*
X61481Y-118364D01*
X61405Y-118127D01*
X61314Y-117907D01*
X61208Y-117704D01*
X61087Y-117518D01*
X60950Y-117348D01*
X60798Y-117196D01*
X60630Y-117060D01*
X60447Y-116941D01*
X60248Y-116837D01*
X60030Y-116747D01*
X59793Y-116671D01*
X59539Y-116609D01*
X59266Y-116561D01*
X58974Y-116526D01*
X58664Y-116505D01*
X58336Y-116499D01*
X57977Y-116506D01*
X57640Y-116529D01*
X57325Y-116568D01*
X57031Y-116621D01*
X56760Y-116690D01*
X56510Y-116774D01*
X56283Y-116874D01*
X56077Y-116989D01*
X55894Y-117119D01*
X55736Y-117264D01*
X55602Y-117425D01*
X55492Y-117600D01*
X55407Y-117790D01*
X55346Y-117996D01*
X55309Y-118216D01*
X55297Y-118452D01*
X55316Y-118724D01*
X55373Y-118972D01*
X55467Y-119195D01*
X55599Y-119393D01*
X55767Y-119572D01*
X55968Y-119737D01*
X56203Y-119888D01*
X56471Y-120024D01*
X56826Y-120160D01*
X57323Y-120312D01*
X57960Y-120478D01*
X58739Y-120659D01*
X59874Y-120926D01*
X60426Y-121075D01*
X60955Y-121250D01*
X61456Y-121455D01*
X61923Y-121692D01*
X62141Y-121826D01*
X62345Y-121975D01*
X62533Y-122137D01*
X62707Y-122314D01*
X62864Y-122506D01*
X63004Y-122715D01*
X63125Y-122940D01*
X63228Y-123181D01*
X63310Y-123442D01*
X63369Y-123724D01*
X63405Y-124029D01*
X63416Y-124355D01*
X63395Y-124770D01*
X63333Y-125161D01*
X63229Y-125528D01*
X63082Y-125870D01*
X62895Y-126189D01*
X62665Y-126483D01*
X62394Y-126754D01*
X62081Y-127000D01*
X61730Y-127220D01*
X61345Y-127410D01*
X60926Y-127571D01*
X60472Y-127703D01*
X59985Y-127805D01*
X59464Y-127879D01*
X58908Y-127923D01*
X58319Y-127937D01*
G37*
D10*
X57150Y-95250D02*
X44450Y-107950D01*
X44450Y-82550D01*
X57150Y-95250D01*
X76200Y228600D02*
X88900Y241300D01*
X76200Y228600D02*
X88900Y215900D01*
X88900Y241300D01*
D11*
X38100Y241300D02*
X38100Y12700D01*
X38100Y241300D02*
X63500Y241300D01*
X63500Y12700D02*
X38100Y12700D01*
X63500Y215900D02*
X63500Y241300D01*
X63500Y215900D02*
X63500Y12700D01*
X63500Y215900D02*
X38100Y215900D01*
X190500Y241300D02*
X190500Y12700D01*
X190500Y241300D02*
X215900Y241300D01*
X215900Y12700D02*
X190500Y12700D01*
X215900Y215900D02*
X215900Y241300D01*
X215900Y215900D02*
X215900Y12700D01*
X215900Y215900D02*
X190500Y215900D01*
D12*
X130500Y175900D02*
X123500Y175900D01*
X123500Y205100D01*
X130500Y205100D01*
X130500Y175900D01*
X134000Y175000D02*
X144000Y175000D01*
X130500Y125100D02*
X123500Y125100D01*
X123500Y154300D01*
X130500Y154300D01*
X130500Y125100D01*
X134000Y124200D02*
X144000Y124200D01*
X130500Y74300D02*
X123500Y74300D01*
X123500Y103500D01*
X130500Y103500D01*
X130500Y74300D01*
X134000Y73400D02*
X144000Y73400D01*
X130500Y23500D02*
X123500Y23500D01*
X123500Y52700D01*
X130500Y52700D01*
X130500Y23500D01*
X134000Y22600D02*
X144000Y22600D01*
D11*
X76200Y-50800D02*
X76200Y-76200D01*
X177800Y-76200D01*
X177800Y-50800D01*
X101600Y-50800D02*
X76200Y-50800D01*
X101600Y-50800D02*
X177800Y-50800D01*
X101600Y-50800D02*
X101600Y-76200D01*
X76200Y-107950D02*
X76200Y-133350D01*
X177800Y-133350D01*
X177800Y-107950D01*
X101600Y-107950D02*
X76200Y-107950D01*
X101600Y-107950D02*
X177800Y-107950D01*
X101600Y-107950D02*
X101600Y-133350D01*
D12*
X57800Y-25400D02*
X43800Y-25400D01*
M02*
